<svg width="150" height="37" viewBox="0 0 150 37" fill="none" xmlns="http://www.w3.org/2000/svg">
<path d="M25.536 -1.23978e-05H34.56V36.576H25.536V-1.23978e-05ZM15.936 9.16799C15.936 12.976 16.256 16.256 16.896 19.008C17.536 21.728 18.416 23.824 19.536 25.296C20.656 26.736 21.936 27.536 23.376 27.696L21.456 35.136C19.728 35.008 18 34.384 16.272 33.264C14.544 32.144 13.024 30.496 11.712 28.32C10.368 30.496 8.832 32.144 7.104 33.264C5.376 34.384 3.648 35.008 1.92 35.136L1.96695e-06 27.696C2.56 27.472 4.432 25.824 5.616 22.752C6.832 19.68 7.44 15.152 7.44 9.16799V7.77599H0.960002V0.575986H22.368V7.77599H15.936V9.16799ZM72.279 0.0959864V26.592H63.255V14.064H59.895V11.808C59.287 13.152 58.343 14.208 57.063 14.976C55.815 15.744 54.327 16.128 52.599 16.128H47.511C45.111 16.128 43.175 15.408 41.703 13.968C40.231 12.528 39.495 10.624 39.495 8.25599C39.495 5.88799 40.231 3.98399 41.703 2.54399C43.175 1.10399 45.111 0.383988 47.511 0.383988H52.599C54.743 0.383988 56.519 0.975988 57.927 2.15999C59.367 3.31199 60.231 4.87999 60.519 6.86399H63.255V0.0959864H72.279ZM50.919 9.35999C51.271 9.35999 51.543 9.24799 51.735 9.02399C51.959 8.79999 52.071 8.52799 52.071 8.20799C52.071 7.88799 51.959 7.63199 51.735 7.43999C51.543 7.21599 51.271 7.10399 50.919 7.10399H49.191C48.839 7.10399 48.551 7.21599 48.327 7.43999C48.135 7.63199 48.039 7.88799 48.039 8.20799C48.039 8.52799 48.151 8.79999 48.375 9.02399C48.599 9.24799 48.871 9.35999 49.191 9.35999H50.919ZM48.519 27.456V29.376H72.135V36.576H39.495V26.592H45.687V24.672H38.535V17.904H61.815V24.672H54.711V27.456H48.519ZM100.827 7.77599H77.2106V0.575986H109.851L109.371 22.176H100.827V7.77599ZM94.5386 27.936H110.811V35.136H76.2506V27.936H85.5146V14.976H94.5386V27.936ZM139.339 7.77599H115.723V0.575986H148.363L147.883 22.176H139.339V7.77599ZM133.051 27.936H149.323V35.136H114.763V27.936H124.027V14.976H133.051V27.936Z" fill="white"/>
</svg>
