<svg width="150" height="37" viewBox="0 0 150 37" fill="none" xmlns="http://www.w3.org/2000/svg">
<path d="M25.536 2.86102e-06H34.56V36.576H25.536V2.86102e-06ZM15.936 9.168C15.936 12.976 16.256 16.256 16.896 19.008C17.536 21.728 18.416 23.824 19.536 25.296C20.656 26.736 21.936 27.536 23.376 27.696L21.456 35.136C19.728 35.008 18 34.384 16.272 33.264C14.544 32.144 13.024 30.496 11.712 28.32C10.368 30.496 8.832 32.144 7.104 33.264C5.376 34.384 3.648 35.008 1.92 35.136L1.96695e-06 27.696C2.56 27.472 4.432 25.824 5.616 22.752C6.832 19.68 7.44 15.152 7.44 9.168V7.776H0.960002V0.576001H22.368V7.776H15.936V9.168ZM72.279 0.0960016V26.592H63.255V14.064H59.895V11.808C59.287 13.152 58.343 14.208 57.063 14.976C55.815 15.744 54.327 16.128 52.599 16.128H47.511C45.111 16.128 43.175 15.408 41.703 13.968C40.231 12.528 39.495 10.624 39.495 8.256C39.495 5.888 40.231 3.984 41.703 2.544C43.175 1.104 45.111 0.384004 47.511 0.384004H52.599C54.743 0.384004 56.519 0.976004 57.927 2.16C59.367 3.312 60.231 4.88 60.519 6.864H63.255V0.0960016H72.279ZM50.919 9.36C51.271 9.36 51.543 9.248 51.735 9.024C51.959 8.8 52.071 8.528 52.071 8.208C52.071 7.888 51.959 7.632 51.735 7.44C51.543 7.216 51.271 7.104 50.919 7.104H49.191C48.839 7.104 48.551 7.216 48.327 7.44C48.135 7.632 48.039 7.888 48.039 8.208C48.039 8.528 48.151 8.8 48.375 9.024C48.599 9.248 48.871 9.36 49.191 9.36H50.919ZM48.519 27.456V29.376H72.135V36.576H39.495V26.592H45.687V24.672H38.535V17.904H61.815V24.672H54.711V27.456H48.519ZM100.827 7.776H77.2106V0.576001H109.851L109.371 22.176H100.827V7.776ZM94.5386 27.936H110.811V35.136H76.2506V27.936H85.5146V14.976H94.5386V27.936ZM139.339 7.776H115.723V0.576001H148.363L147.883 22.176H139.339V7.776ZM133.051 27.936H149.323V35.136H114.763V27.936H124.027V14.976H133.051V27.936Z" fill="black"/>
</svg>
