<svg width="264" height="48" viewBox="0 0 264 48" fill="none" xmlns="http://www.w3.org/2000/svg">
<path d="M13.44 32.592L12.144 38.304H2.75671e-05L9.31203 2.304H27.12L36.432 38.304H24.288L22.944 32.592H13.44ZM18.528 13.344H17.904L15.552 23.424H20.832L18.528 13.344ZM34.8614 47.808V9.504H40.6214L42.7334 12.384C44.4294 9.888 47.5654 8.64 52.1414 8.64C54.4454 8.64 56.3814 9.056 57.9494 9.888C59.5174 10.72 60.7814 11.84 61.7414 13.248C62.7334 14.624 63.4374 16.24 63.8534 18.096C64.3014 19.952 64.5254 21.888 64.5254 23.904C64.5254 25.856 64.3334 27.696 63.9494 29.424C63.5654 31.152 62.9254 32.688 62.0294 34.032C61.1334 35.344 59.9494 36.384 58.4774 37.152C57.0054 37.92 55.1814 38.304 53.0054 38.304H46.3814V46.944L34.8614 47.808ZM46.3814 19.2V30.768H48.1574C49.5654 30.768 50.5734 30.624 51.1814 30.336C51.8214 30.048 52.1414 29.376 52.1414 28.32V17.04H50.3654C49.5334 17.04 48.8614 17.072 48.3494 17.136C47.8374 17.2 47.3894 17.408 47.0054 17.76C46.6214 18.08 46.4134 18.56 46.3814 19.2ZM65.327 47.808V9.504H71.087L73.199 12.384C74.895 9.888 78.031 8.64 82.607 8.64C84.911 8.64 86.847 9.056 88.415 9.888C89.983 10.72 91.247 11.84 92.207 13.248C93.199 14.624 93.903 16.24 94.319 18.096C94.767 19.952 94.991 21.888 94.991 23.904C94.991 25.856 94.799 27.696 94.415 29.424C94.031 31.152 93.391 32.688 92.495 34.032C91.599 35.344 90.415 36.384 88.943 37.152C87.471 37.92 85.647 38.304 83.471 38.304H76.847V46.944L65.327 47.808ZM76.847 19.2V30.768H78.623C80.031 30.768 81.039 30.624 81.647 30.336C82.287 30.048 82.607 29.376 82.607 28.32V17.04H80.831C79.999 17.04 79.327 17.072 78.815 17.136C78.303 17.2 77.855 17.408 77.471 17.76C77.087 18.08 76.879 18.56 76.847 19.2ZM95.7927 0.863999L107.313 -9.53674e-07V30.048C107.921 30.176 108.465 30.272 108.945 30.336C109.425 30.4 109.825 30.448 110.145 30.48L109.617 38.928C104.721 38.928 101.473 38.64 99.8727 38.064C98.5287 37.584 97.5047 36.96 96.8007 36.192C96.1287 35.424 95.7927 34.32 95.7927 32.88V0.863999ZM119.405 35.328H113.357L106.925 9.504H118.445L121.613 28.224H122.189L125.357 9.504H136.877L129.677 38.304C129.165 40.192 128.573 41.744 127.901 42.96C127.261 44.176 126.509 45.136 125.645 45.84C124.781 46.576 123.773 47.088 122.621 47.376C121.501 47.664 120.189 47.808 118.685 47.808H107.501V40.32L112.925 39.264C115.709 38.624 117.517 37.936 118.349 37.2C118.573 37.008 118.781 36.784 118.973 36.528C119.165 36.272 119.341 35.984 119.501 35.664L119.405 35.328ZM164.981 27.696V26.16H162.053V17.328H175.925V36.576C171.381 38.304 166.661 39.168 161.765 39.168C158.405 39.168 155.621 38.768 153.413 37.968C151.237 37.168 149.509 35.984 148.229 34.416C146.949 32.816 146.053 30.848 145.541 28.512C145.061 26.144 144.821 23.392 144.821 20.256C144.821 16.928 145.125 14.08 145.733 11.712C146.341 9.312 147.349 7.36 148.757 5.856C150.165 4.32 152.037 3.2 154.373 2.496C156.709 1.792 159.605 1.44 163.061 1.44C163.829 1.44 164.725 1.488 165.749 1.584C166.805 1.648 167.861 1.76 168.917 1.92C169.973 2.048 170.965 2.208 171.893 2.4C172.853 2.56 173.621 2.736 174.197 2.928L172.469 11.76C170.901 11.504 169.413 11.312 168.005 11.184C166.597 11.024 165.285 10.944 164.069 10.944C161.541 10.944 159.765 11.136 158.741 11.52C157.717 11.904 157.205 12.672 157.205 13.824V30.144H160.997C162.405 30.144 163.413 30 164.021 29.712C164.661 29.392 164.981 28.72 164.981 27.696ZM176.144 23.904C176.144 18.752 177.344 14.928 179.744 12.432C182.144 9.904 186.032 8.64 191.408 8.64C196.784 8.64 200.672 9.904 203.072 12.432C205.472 14.928 206.672 18.752 206.672 23.904C206.672 29.056 205.472 32.896 203.072 35.424C200.672 37.92 196.784 39.168 191.408 39.168C186.16 39.168 182.304 37.936 179.84 35.472C177.376 33.008 176.144 29.152 176.144 23.904ZM188.528 19.488V30.768H190.304C191.712 30.768 192.72 30.624 193.328 30.336C193.968 30.048 194.288 29.376 194.288 28.32V17.04H192.512C191.104 17.04 190.08 17.184 189.44 17.472C188.832 17.76 188.528 18.432 188.528 19.488ZM205.944 46.08L207.432 37.488C210.728 38.608 214.552 39.168 218.904 39.168C219.544 39.168 220.088 39.152 220.536 39.12C221.016 39.12 221.384 39.104 221.64 39.072V37.056C219.912 37.056 218.504 37.024 217.416 36.96C216.328 36.864 215.512 36.736 214.968 36.576C213.88 36.288 213.192 36 212.904 35.712C212.552 35.424 212.344 35.2 212.28 35.04C212.216 34.848 212.184 34.576 212.184 34.224L213.912 29.28C211.16 28.768 209.064 27.728 207.624 26.16C206.184 24.56 205.464 22.08 205.464 18.72C205.464 15.392 206.6 12.88 208.872 11.184C211.144 9.488 214.824 8.64 219.912 8.64C220.84 8.64 221.704 8.672 222.504 8.736C223.304 8.768 224.072 8.848 224.808 8.976L229.848 5.136L235.896 10.944L232.584 14.784C233.096 16.096 233.352 17.824 233.352 19.968C233.352 21.472 233.176 22.784 232.824 23.904C232.472 25.024 231.88 25.968 231.048 26.736C230.248 27.504 229.192 28.112 227.88 28.56C226.568 28.976 224.936 29.264 222.984 29.424L222.744 30.816C224.824 30.944 226.584 31.152 228.024 31.44C229.464 31.696 230.632 32.112 231.528 32.688C232.424 33.264 233.064 34 233.448 34.896C233.864 35.792 234.072 36.928 234.072 38.304C234.072 40.608 233.608 42.4 232.68 43.68C231.752 44.96 230.536 45.904 229.032 46.512C227.56 47.12 225.88 47.488 223.992 47.616C222.136 47.744 220.264 47.808 218.376 47.808C214.568 47.808 210.424 47.232 205.944 46.08ZM216.312 18.72V22.464H218.088C219.464 22.464 220.472 22.32 221.112 22.032C221.752 21.744 222.072 21.088 222.072 20.064V16.32H220.248C218.872 16.32 217.864 16.464 217.224 16.752C216.616 17.04 216.312 17.696 216.312 18.72ZM233.372 23.904C233.372 18.752 234.572 14.928 236.972 12.432C239.372 9.904 243.26 8.64 248.636 8.64C254.012 8.64 257.9 9.904 260.3 12.432C262.7 14.928 263.9 18.752 263.9 23.904C263.9 29.056 262.7 32.896 260.3 35.424C257.9 37.92 254.012 39.168 248.636 39.168C243.388 39.168 239.532 37.936 237.068 35.472C234.604 33.008 233.372 29.152 233.372 23.904ZM245.756 19.488V30.768H247.532C248.94 30.768 249.948 30.624 250.556 30.336C251.196 30.048 251.516 29.376 251.516 28.32V17.04H249.74C248.332 17.04 247.308 17.184 246.668 17.472C246.06 17.76 245.756 18.432 245.756 19.488Z" fill="black"/>
</svg>
